<?xml version="1.0" encoding="utf-8"?>
<!-- Generator: Adobe Illustrator 23.0.6, SVG Export Plug-In . SVG Version: 6.00 Build 0)  -->
<svg version="1.1" id="Calque_1" xmlns="http://www.w3.org/2000/svg" xmlns:xlink="http://www.w3.org/1999/xlink" x="0px" y="0px"
	 viewBox="0 0 841.9 595.3" style="enable-background:new 0 0 841.9 595.3;" xml:space="preserve">
<g>
	<path d="M272.7,288.3c6.4-3.6,12.5-7.4,18.9-10.7c8.5-4.4,17.3-7.2,20.1-6.7c-24.4,18.8-45.2,40.4-55.9,70.1
		c9.8-6.7,19.2-14.1,30.5-18.3c-0.3,1-0.8,1.7-1.2,2.5c-11.9,19.5-21.6,39.9-26.2,62.4c-1.1,5.5-1.4,11.1-2.1,16.7
		c0.3,0,0.6,0.1,0.8,0.2c6.5-11.4,13.3-22.5,22.8-32c-13.9,27.5-17,56.2-10.7,86.6c3.9-13.8,7-27.2,12.8-40
		c1.8,30.4,13.7,55.9,36.4,77c-2-5.4-3.8-10.2-5.4-15.1c-1.6-4.9-3.1-9.9-4.5-15c-1.3-4.9-2.5-9.8-2.3-14.9
		c8.9,14.9,18.7,28.8,34.9,36.7c0.1-0.4,0.2-0.5,0.2-0.5c-0.8-1.3-1.6-2.6-2.4-3.9c-9.5-16.5-15.5-34.4-19.8-52.9
		c-3.2-13.8-5.3-27.8-4.3-42c0.3-4,1.2-7.9,1.8-11.8c0.3,0,0.5,0.1,0.8,0.1c8.5,14,16.4,28.4,28.6,39.6c0.1-0.5,0-0.9-0.1-1.3
		c-6-17.8-10.3-36.1-12.1-54.8c-1.1-10.9-1.3-21.8,1.4-32.5c3.4-13.2,11.5-23.5,21-32.8c2.2-2.2,4.7-4,7.1-6
		c3.3,12,6.4,23.5,9.6,35.1c0.2,0,0.5-0.1,0.7-0.1c0.1-0.5,0.2-1,0.3-1.6c1.6-12.1,3.7-24.1,7.3-35.8c2.3-7.5,5-14.9,9.9-21.3
		c1.3-1.7,2.7-2.5,5.1-2.2c11.7,1.8,22.9,5.3,34,9.4c0.7,0.3,1.3,1.3,1.6,2.1c3,8.3,7,16.2,12.1,23.4c6.5,9.3,14.4,17,24.7,22
		c0.8,0.4,1.6,0.7,2.4,1c-6.3-9.7-9.7-20.1-10.8-31.8c0.7,0.5,1,0.7,1.3,1c7.2,6.4,13.9,13.2,18.9,21.4
		c11.7,19.3,22.4,39.1,32.1,59.4c0.5,1,1.4,1.9,2.3,2.6c6.2,4.2,12.5,8.5,18.8,12.5c5.3,3.4,7.5,8.6,8.6,14.4
		c0.6,2.8,0.5,5.7-1.9,8.7c-3.4-4.2-6.6-8.1-9.8-12.1c-4.2,3.8-7.4,8.1-8.6,13.8c-0.6,2.8-0.4,5.3,2,7.4c1.8,1.5,3.3,3.4,5,5.2
		c-0.6,0.3-0.9,0.4-1.3,0.5c-7.1,3-14.1,6.3-19.3,12.3c-0.3,0.4-1.7,0.4-2.2,0c-2.8-2.1-5.6-4.3-8.1-6.7c-4.1-3.8-7.8-7.9-12-11.5
		c-5.8-4.9-12.3-6.6-19.4-2.5c-5.5-6.2-13-8.9-20.5-11.7c-17-6.3-33.9-12.6-50.9-19c-1.1-0.4-2.2-1.1-2.8-2
		c-5-6.9-9.3-14.2-12.4-22.2c-0.3-0.6-0.6-1.2-1-2.1c-0.2,0.6-0.3,0.8-0.3,1c-2,11.2-1.3,22.4-0.3,33.6c0.5,5.5,0.7,5.5,6,7.1
		c0.8,0.2,1.8,1.2,1.9,1.9c0.6,4.5,1,9.1,1.6,13.6c1.7,13.7,4.2,27.2,10.1,39.9c6.6,14.5,15.1,27.3,28.3,36.7c0.7,0.5,1.5,1,2.2,1.5
		c-1.3-3.4-2.9-6.4-4.5-9.4c-10.2-19.5-18.8-39.5-21-61.7c-0.6-5.8-0.1-11.6-0.1-17.6c0.6,0.1,1.1,0,1.6,0.1
		c14.3,4.2,28.6,8.4,42.9,12.6c3.4,1,6.3,3,8.9,5.5c7.1,6.8,14.4,13.3,21.5,20c5.2,5,11.3,5.9,18,4.6c2.6-0.5,5.4-0.5,8-0.2
		c5.1,0.6,9.9,0,14.3-2.9c5.9-4,11.6-8.3,17.7-12.1c6.2-4,10-9.6,11.9-16.5c0.2-0.9,0.5-1.7,0.8-2.5c3.2-10.4,2.1-20-5.5-28.3
		c-7.1-7.8-14.2-15.7-21.6-23.3c-3.6-3.7-6.8-7.6-9.1-12.3c-6.8-14.1-13.6-28.3-20.5-42.5c0-0.1,0.1-0.3,0.1-0.4
		c3.2,0.3,6.4,0.9,9.5,0.9c3.2,0,6.4-0.3,9.5-0.9c3-0.6,5.9-1.8,8.8-2.7c-16.3-2.4-27.4-8.5-33.2-18.9
		c30.8-27.4,59.9-56.2,80.1-92.8c-31.2,25.2-65,45.8-101.7,62.1c-7.1-11.9-16.9-20.2-29.6-24.3c0.5-6.4,1.2-12.4,1.4-18.5
		c0.3-7.7,2.3-14.7,6.7-21c0.5-0.7,0.9-1.4,1.5-2.3c-0.6-0.1-0.9-0.2-1.2-0.2c-9.6-0.9-18,2.1-25.7,7.7
		c-8.8,6.5-15.2,14.9-20.1,24.5c-1.1,2.2-2.3,2.6-4.6,2.6c-22.5-0.9-44.3,2.8-65,11.7C304,246,285.2,263.7,272.7,288.3z M418.7,311
		c0.3,0.1,0.6,0.2,0.9,0.2c0.3-0.3,0.5-0.7,0.8-0.9c1-0.7,2-1.3,3-2c0.4,1.2,0.9,2.3,1.2,3.5c0.4,2.3,0.5,4.6,1.1,6.8
		c1.6,5.3,5.4,7.2,10.8,5.9c1-0.2,2.2-0.1,3.1,0.2c3.2,1.2,6.3,2.6,9.6,4.1c-5.3-15.2-15.7-25.6-29.1-34.7
		C419.6,300.2,419.2,305.6,418.7,311z"/>
	<path d="M272.7,288.3c12.5-24.5,31.4-42.2,56.5-53.2c20.7-9,42.5-12.6,65-11.7c2.3,0.1,3.5-0.4,4.6-2.6
		c4.9-9.6,11.3-18.1,20.1-24.5c7.6-5.6,16.1-8.6,25.7-7.7c0.3,0,0.6,0.1,1.2,0.2c-0.5,0.8-1,1.6-1.5,2.3c-4.4,6.3-6.4,13.3-6.7,21
		c-0.2,6.1-0.9,12.1-1.4,18.5c12.7,4.1,22.5,12.4,29.6,24.3c36.7-16.3,70.5-36.9,101.7-62.1c-20.2,36.6-49.3,65.4-80.1,92.8
		c5.8,10.4,16.8,16.5,33.2,18.9c-2.9,0.9-5.8,2.1-8.8,2.7c-3.1,0.6-6.4,0.9-9.5,0.9c-3.2,0-6.3-0.6-9.5-0.9c0,0.1-0.1,0.3-0.1,0.4
		c6.8,14.1,13.6,28.3,20.5,42.5c2.3,4.7,5.4,8.6,9.1,12.3c7.4,7.6,14.5,15.4,21.6,23.3c7.6,8.3,8.7,17.9,5.5,28.3
		c-0.3,0.8-0.6,1.7-0.8,2.5c-2,7-5.7,12.6-11.9,16.5c-6,3.8-11.8,8.1-17.7,12.1c-4.3,3-9.1,3.5-14.3,2.9c-2.6-0.3-5.4-0.3-8,0.2
		c-6.8,1.2-12.8,0.3-18-4.6c-7.1-6.7-14.4-13.3-21.5-20c-2.6-2.5-5.5-4.4-8.9-5.5c-14.3-4.3-28.6-8.4-42.9-12.6
		c-0.4-0.1-0.9-0.1-1.6-0.1c0,6-0.5,11.8,0.1,17.6c2.2,22.2,10.8,42.2,21,61.7c1.6,3,3.2,6,4.5,9.4c-0.8-0.5-1.5-1-2.2-1.5
		c-13.2-9.3-21.7-22.2-28.3-36.7c-5.8-12.7-8.3-26.2-10.1-39.9c-0.6-4.5-0.9-9.1-1.6-13.6c-0.1-0.7-1.1-1.6-1.9-1.9
		c-5.3-1.6-5.5-1.5-6-7.1c-1.1-11.2-1.7-22.4,0.3-33.6c0-0.2,0.1-0.4,0.3-1c0.4,0.9,0.7,1.5,1,2.1c3.1,8,7.4,15.3,12.4,22.2
		c0.6,0.9,1.8,1.6,2.8,2c16.9,6.4,33.9,12.7,50.9,19c7.5,2.8,14.9,5.5,20.5,11.7c5,3.5,23.6,16.1,29,18.2s10.8,3.8,14.3,2.4
		c0.5-0.2,10.7-9.2,17.9-12.2c0.4-0.1,0.7-0.3,1.3-0.5c-1.8-1.8-3.3-3.7-5-5.2c-2.4-2.1-2.6-4.6-2-7.4c1.2-5.6,5.6-13.5,8.6-13.8
		c3-0.3,6.4,7.9,9.8,12.1c2.5-3,2.5-5.9,1.9-8.7c-1.2-5.8-3.3-11-8.6-14.4c-6.4-4-12.6-8.3-18.8-12.5c-0.9-0.6-1.8-1.6-2.3-2.6
		c-9.8-20.3-20.4-40.2-32.1-59.4c-5-8.2-11.7-15.1-18.9-21.4c-0.3-0.3-0.6-0.5-1.3-1c1,11.7,4.5,22.1,10.8,31.8
		c-0.8-0.3-1.6-0.6-2.4-1c-10.3-5-18.2-12.7-24.7-22c-5.1-7.3-9.1-15.1-12.1-23.4c-0.3-0.8-0.9-1.9-1.6-2.1
		c-11.1-4.1-22.3-7.7-34-9.4c-2.3-0.4-3.7,0.4-5.1,2.2c-4.9,6.4-7.6,13.7-9.9,21.3c-3.5,11.7-5.7,23.7-7.3,35.8
		c-0.1,0.5-0.2,1-0.3,1.6c-0.2,0-0.5,0.1-0.7,0.1c-3.2-11.6-6.3-23.2-9.6-35.1c-2.4,2-4.9,3.8-7.1,6c-9.5,9.3-17.7,19.6-21,32.8
		c-2.7,10.7-2.5,21.6-1.4,32.5c1.9,18.8,6.1,37,12.1,54.8c0.1,0.4,0.2,0.7,0.1,1.3c-12.2-11.3-20.1-25.6-28.6-39.6
		c-0.3,0-0.5-0.1-0.8-0.1c-0.6,3.9-1.6,7.9-1.8,11.8c-1,14.2,1.1,28.2,4.3,42c4.3,18.5,10.3,36.4,19.8,52.9c0.8,1.3,1.6,2.6,2.4,3.9
		c0,0,0,0.1-0.2,0.5c-16.2-8-26-21.8-34.9-36.7c-0.3,5.1,0.9,10,2.3,14.9c1.4,5,2.8,10,4.5,15c1.6,4.9,3.4,9.6,5.4,15.1
		c-22.7-21.1-34.6-46.6-36.4-77c-5.7,12.7-8.8,26.2-12.8,40c-6.3-30.5-3.2-59.2,10.7-86.6c-9.5,9.4-16.3,20.6-22.8,32
		c-0.3,0-0.6-0.1-0.8-0.2c0.7-5.6,0.9-11.2,2.1-16.7c4.6-22.5,14.3-43,26.2-62.4c0.5-0.8,0.9-1.5,1.2-2.5
		c-11.3,4.2-20.7,11.6-30.5,18.3c10.6-29.7,31.5-51.3,55.9-70.1c-2.8-0.4-11.6,2.3-20.1,6.7C285.2,280.9,279.1,284.6,272.7,288.3z
		 M552.5,208.6c-25.6,21.3-54.1,37.7-84,52.8c3.1,4.3,6.1,8.2,9.1,12.2C505,254.4,530.4,233.5,552.5,208.6z M434.9,194.3
		c-10.8,1.7-30,25.5-29.8,37.4c0.4-0.4,0.8-0.7,1.1-1c4.4-3.8,8.9-7.5,13.2-11.4c0.5-0.5,0.9-1.3,1.2-1.9c1.9-3.9,3.5-8.1,5.8-11.8
		C429,201.5,432.1,197.9,434.9,194.3z"/>
	<path d="M420.1,294.2c1.1,0,11.6,5.2,19.1,13.8c5.3,6.1,7.9,14.6,10.1,20.9c-1.1-1-18.7-1.8-26.7-10
		C415.3,311.4,417.5,296.6,420.1,294.2z"/>
	<path d="M468.5,261.5c29.9-15.1,58.5-31.6,84-52.8"/>
	<path d="M434.9,194.3c-2.8,3.6-5.9,7.3-8.4,11.3c-2.3,3.7-3.9,7.9-5.8,11.8c-0.3,0.7-0.7,1.5-1.2,1.9c-4.4,3.8-8.8,7.6-13.2,11.4
		c-0.3,0.3-0.7,0.6-1.1,1C404.8,219.8,424.1,196,434.9,194.3z"/>
</g>
<g>
	<path d="M411.7,581.6c-63.9,0-124-24.9-169.2-70.1s-70.1-105.3-70.1-169.2c0-63.9,24.9-124,70.1-169.2s105.3-70.1,169.2-70.1
		s124,24.9,169.2,70.1S651,278.3,651,342.2c0,63.9-24.9,124-70.1,169.2C535.7,556.7,475.6,581.6,411.7,581.6z M411.7,114.9
		c-125.4,0-227.3,102-227.3,227.3s102,227.3,227.3,227.3S639,467.6,639,342.2S537,114.9,411.7,114.9z"/>
</g>
<path d="M-132.5-16.8"/>
<path d="M675.2,384.3"/>
<path d="M576.5,387.9"/>
</svg>
